# xmcd CD database file
#
# Track frame offsets:
#	150
#	19745
#	29788
#	50484
#	72747
#	86407
#	111070
#	130537
#	150181
#	179455
#	196030
#
# Disc length: 3144 seconds
#
# Revision: 0
# Processed by: cddbd v1.5.2PL0 Copyright (c) Steve Scherf et al.
# Submitted via: CD2WAV32(JP) R3.22
#
DISCID=8a0c460b
DTITLE=Hiroshi Yoshizaki - Banjo Nostalgie
DYEAR=2004
DGENRE=Bluegrass
TTITLE0=Sweet Popcorn
TTITLE1=Longwood Breakdown
TTITLE2=LUNA
TTITLE3=凪
TTITLE4=Nostalgic Waltz
TTITLE5=BMS
TTITLE6=アローン・エイリアン
TTITLE7=Inlet Moon
TTITLE8=津軽じょんがらBreakdown
TTITLE9=萌黄の頃
TTITLE10=Storrow Drive
EXTD=
EXTT0=
EXTT1=
EXTT2=
EXTT3=
EXTT4=
EXTT5=
EXTT6=
EXTT7=
EXTT8=
EXTT9=
EXTT10=
PLAYORDER=
